<svg width="111" height="118" version="1.1" xmlns="http://www.w3.org/2000/svg" desc="Created with imagetracer.js version 1.2.6" ><path fill="rgb(18,10,5)" stroke="rgb(18,10,5)" stroke-width="1" opacity="0.09019607843137255" d="M 95.5 21 L 95 22.5 L 96 24.5 L 94 23.5 L 95.5 21 Z " /><path fill="rgb(18,10,5)" stroke="rgb(18,10,5)" stroke-width="1" opacity="0.09019607843137255" d="M 89.5 22 L 92 23.5 L 90.5 26 L 91 24.5 Q 91.8 22.3 89.5 23 L 89.5 22 Z " /><path fill="rgb(18,10,5)" stroke="rgb(18,10,5)" stroke-width="1" opacity="0.09019607843137255" d="M 81.5 24 L 84 24.5 L 81.5 25 L 81.5 24 Z " /><path fill="rgb(18,10,5)" stroke="rgb(18,10,5)" stroke-width="1" opacity="0.09019607843137255" d="M 90.5 27 L 91.5 29 L 90.5 27 Z " /><path fill="rgb(18,10,5)" stroke="rgb(18,10,5)" stroke-width="1" opacity="0.09019607843137255" d="M 90.5 31 L 91 33.5 L 90 33.5 L 90.5 31 Z " /><path fill="rgb(18,10,5)" stroke="rgb(18,10,5)" stroke-width="1" opacity="0.09019607843137255" d="M 32.5 37 L 35 37.5 L 32.5 38 L 32.5 37 Z " /><path fill="rgb(18,10,5)" stroke="rgb(18,10,5)" stroke-width="1" opacity="0.09019607843137255" d="M 81.5 37 L 82 39.5 L 81 39.5 L 81.5 37 Z " /><path fill="rgb(18,10,5)" stroke="rgb(18,10,5)" stroke-width="1" opacity="0.09019607843137255" d="M 89.5 37 L 91 39.5 L 90.5 42 L 89 38.5 L 89.5 37 Z " /><path fill="rgb(18,10,5)" stroke="rgb(18,10,5)" stroke-width="1" opacity="0.09019607843137255" d="M 30.5 38 L 29.5 40 L 30.5 38 Z " /><path fill="rgb(18,10,5)" stroke="rgb(18,10,5)" stroke-width="1" opacity="0.09019607843137255" d="M 9.5 40 L 8.5 42 L 9.5 40 Z " /><path fill="rgb(18,10,5)" stroke="rgb(18,10,5)" stroke-width="1" opacity="0.09019607843137255" d="M 6.5 44 L 5.5 46 L 6.5 44 Z " /><path fill="rgb(18,10,5)" stroke="rgb(18,10,5)" stroke-width="1" opacity="0.09019607843137255" d="M 20.5 45 L 21 47.5 L 20 47.5 L 20.5 45 Z " /><path fill="rgb(18,10,5)" stroke="rgb(18,10,5)" stroke-width="1" opacity="0.09019607843137255" d="M 28.5 46 L 29 47.5 L 25.5 49 L 25.5 48 Q 29 49 28.5 46 Z " /><path fill="rgb(18,10,5)" stroke="rgb(18,10,5)" stroke-width="1" opacity="0.09019607843137255" d="M 5.5 48 L 6 51.5 L 5 51.5 L 5.5 48 Z " /><path fill="rgb(18,10,5)" stroke="rgb(18,10,5)" stroke-width="1" opacity="0.09019607843137255" d="M 29.5 51 L 31.5 54 L 29.5 51 Z " /><path fill="rgb(18,10,5)" stroke="rgb(18,10,5)" stroke-width="1" opacity="0.09019607843137255" d="M 33.5 55 L 35 58.5 L 34 58.5 L 33.5 55 Z " /><path fill="rgb(18,10,5)" stroke="rgb(18,10,5)" stroke-width="1" opacity="0.09019607843137255" d="M 89.5 55 L 88.5 57 L 89.5 55 Z " /><path fill="rgb(18,10,5)" stroke="rgb(18,10,5)" stroke-width="1" opacity="0.09019607843137255" d="M 86.5 58 L 85.5 60 L 86.5 58 Z " /><path fill="rgb(18,10,5)" stroke="rgb(18,10,5)" stroke-width="1" opacity="0.09019607843137255" d="M 38.5 66 L 39.5 68 L 38.5 66 Z " /><path fill="rgb(18,10,5)" stroke="rgb(18,10,5)" stroke-width="1" opacity="0.09019607843137255" d="M 10.5 68 L 11 71.5 L 10 71.5 L 10.5 68 Z " /><path fill="rgb(18,10,5)" stroke="rgb(18,10,5)" stroke-width="1" opacity="0.09019607843137255" d="M 84.5 68 L 86.5 71 L 84.5 68 Z " /><path fill="rgb(18,10,5)" stroke="rgb(18,10,5)" stroke-width="1" opacity="0.09019607843137255" d="M 25.5 74 L 24.5 76 L 25.5 74 Z " /><path fill="rgb(18,10,5)" stroke="rgb(18,10,5)" stroke-width="1" opacity="0.09019607843137255" d="M 90.5 74 L 93.5 78 L 90.5 74 Z " /><path fill="rgb(18,10,5)" stroke="rgb(18,10,5)" stroke-width="1" opacity="0.09019607843137255" d="M 10.5 77 L 11 80.5 L 10 80.5 L 10.5 77 Z " /><path fill="rgb(18,10,5)" stroke="rgb(18,10,5)" stroke-width="1" opacity="0.09019607843137255" d="M 96.5 81 L 97.5 83 L 96.5 81 Z " /><path fill="rgb(18,10,5)" stroke="rgb(18,10,5)" stroke-width="1" opacity="0.09019607843137255" d="M 79.5 87 L 80.5 89 L 79.5 87 Z " /><path fill="rgb(18,10,5)" stroke="rgb(18,10,5)" stroke-width="1" opacity="0.09019607843137255" d="M 13.5 88 L 14.5 90 L 13.5 88 Z " /><path fill="rgb(18,10,5)" stroke="rgb(18,10,5)" stroke-width="1" opacity="0.09019607843137255" d="M 100.5 88 L 101.5 90 L 100.5 88 Z " /><path fill="rgb(18,10,5)" stroke="rgb(18,10,5)" stroke-width="1" opacity="0.09019607843137255" d="M 19.5 91 L 22 91.5 L 19.5 92 L 19.5 91 Z " /><path fill="rgb(18,10,5)" stroke="rgb(18,10,5)" stroke-width="1" opacity="0.09019607843137255" d="M 82.5 91 L 84.5 94 L 82.5 91 Z " /><path fill="rgb(18,10,5)" stroke="rgb(18,10,5)" stroke-width="1" opacity="0.09019607843137255" d="M 34.5 92 L 35 94.5 L 34 94.5 L 34.5 92 Z " /><path fill="rgb(18,10,5)" stroke="rgb(18,10,5)" stroke-width="1" opacity="0.09019607843137255" d="M 78.5 92 L 79 94.5 L 78 94.5 L 78.5 92 Z " /><path fill="rgb(18,10,5)" stroke="rgb(18,10,5)" stroke-width="1" opacity="0.09019607843137255" d="M 78.5 97 L 79 100.5 L 78 100.5 L 78.5 97 Z " /><path fill="rgb(18,10,5)" stroke="rgb(18,10,5)" stroke-width="1" opacity="0.09019607843137255" d="M 94.5 98 L 93.5 100 L 94.5 98 Z " /><path fill="rgb(18,10,5)" stroke="rgb(18,10,5)" stroke-width="1" opacity="0.09019607843137255" d="M 33.5 99 L 34 105.5 L 33 105.5 L 33.5 99 Z " /><path fill="rgb(0,0,0)" stroke="rgb(0,0,0)" stroke-width="1" opacity="0" d="M 0 0 L 111 0 L 111 118 L 0 118 L 0 0 Z M 57 6 L 26 16 Q 23 15 24 19 L 26 20 L 40 23 L 41 25 L 36 38 L 35 37 L 31 38 L 28 42 Q 27 47 29 49 L 28 48 L 21 51 L 21 46 L 18 38 L 16 37 L 10 40 L 8 44 L 5 46 L 6 54 L 6 56 L 8 64 L 11 67 L 10 69 Q 8 82 13 89 L 20 92 L 26 91 L 28 91 L 34 89 L 35 89 L 33 106 L 45 111 L 58 113 L 60 113 Q 63 111 70 112 L 79 109 Q 91 104 99 95 Q 98 92 101 93 L 102 91 L 94 78 Q 88 67 76 65 L 77 61 L 79 61 L 86 60 Q 92 56 93 48 L 91 42 L 88 39 L 83 40 L 79 25 L 91 23 L 92 23 L 91 25 L 91 29 L 89 39 Q 90 41 92 39 L 97 40 L 97 32 L 95 23 L 102 20 L 102 18 Q 95 18 93 14 L 61 6 L 57 6 Z " /><path fill="rgb(0,0,0)" stroke="rgb(0,0,0)" stroke-width="1" opacity="0" d="M 29.5 52 L 34 56.5 Q 34.6 63.9 39 67.5 L 24.5 75 L 22 67.5 L 22 65.5 L 26 61.5 Q 26 55 29.5 52 Z " /><path fill="rgb(0,0,0)" stroke="rgb(0,0,0)" stroke-width="1" opacity="0" d="M 65.5 56 L 66 57.5 L 64 63 L 60.5 62 Q 59 64.5 53.5 63 L 48.5 68 L 43 59.5 L 46.5 59 L 47.5 60 L 56.5 60 L 65.5 56 Z " /><path fill="rgb(0,0,0)" stroke="rgb(0,0,0)" stroke-width="1" opacity="0" d="M 79.5 88 L 85 94.5 L 78.5 105 L 78 101.5 L 79 97.5 L 78 95.5 L 79.5 88 Z " /><path fill="rgb(39,37,33)" stroke="rgb(39,37,33)" stroke-width="1" opacity="0.9921568627450981" d="M 57.5 7 Q 62.3 5.7 61 9 L 59 9.5 L 62.5 10 L 62.5 8 L 65 9.5 L 63 10.5 L 66.5 11 L 66.5 9 L 69 10.5 L 67 11.5 L 70 12 Q 69 9 72 10 Q 73.1 12.7 70.5 12 L 70.5 13 L 74 12.5 L 73.5 11 Q 77.3 10 76 13 L 74 13.5 L 77.5 14 L 77.5 12 Q 81.3 11 80 14 L 78 14.5 L 81.5 15 L 81.5 13 Q 85.3 12 84 15 L 82 15.5 L 85.5 16 L 85.5 14 Q 89.3 13 88 16 L 86 16.5 L 89 17 Q 87.9 14.3 90.5 15 L 92 14.5 L 90 18 L 92.5 17 L 93 23.5 L 92 23.5 Q 93.3 19.3 88.5 21 L 79.5 24 L 78 20 L 76 20.5 L 79 30.5 L 78 32.5 L 80 32.5 L 79.5 35 L 75.5 30 L 72.5 29 L 71 29.5 Q 71.9 26.5 67.5 28 L 63.5 29 L 60 28 L 59.5 30 L 58 29.5 L 57.5 31 L 56.5 29 L 56 31 L 48.5 29 L 47 29.5 L 47 28 L 43 28 L 42.5 30 L 40 29.5 L 43 21.5 L 41.5 22 L 26 18 Q 25 15 28 16 Q 26.8 19 30.5 18 L 30 16.5 Q 29.3 14.3 31.5 15 L 31.5 17 L 35 16.5 L 33 16 Q 32 13 35 14 Q 33.8 17 37.5 16 L 37.5 15 L 36 14.5 L 38.5 13 L 38.5 15 L 41 14.5 L 40 12 L 42 12.5 L 41.5 14 L 45 13.5 L 43 13 Q 42 10 45 11 Q 43.8 14 47.5 13 L 47.5 12 L 46 11.5 L 48.5 10 L 48.5 12 L 51 11.5 L 50 9 L 52 9.5 L 51.5 11 L 54 10.5 Q 51.8 9.3 54.5 8 L 54.5 10 L 58 9.5 L 56 8.5 L 57.5 7 Z M 51 16 L 47 17 L 47 18 L 52 17 L 65 17 L 66 18 L 71 18 Q 63 14 51 16 Z M 72 18 L 72 19 L 74 19 L 72 18 Z " /><path fill="rgb(39,37,33)" stroke="rgb(39,37,33)" stroke-width="1" opacity="0.9921568627450981" d="M 95.5 17 L 101 18.5 L 98.5 19 L 95.5 18 L 95.5 17 Z " /><path fill="rgb(39,37,33)" stroke="rgb(39,37,33)" stroke-width="1" opacity="0.9921568627450981" d="M 46.5 32 L 49 33.5 L 47.5 34 L 46.5 32 Z " /><path fill="rgb(39,37,33)" stroke="rgb(39,37,33)" stroke-width="1" opacity="0.9921568627450981" d="M 40 34 L 42 34.5 L 40 35.5 L 40 34 Z " /><path fill="rgb(39,37,33)" stroke="rgb(39,37,33)" stroke-width="1" opacity="0.9921568627450981" d="M 56.5 35 L 57 36.5 L 55 37.5 L 56.5 35 Z " /><path fill="rgb(39,37,33)" stroke="rgb(39,37,33)" stroke-width="1" opacity="0.9921568627450981" d="M 96.5 35 L 97 38.5 L 96 38.5 L 96.5 35 Z " /><path fill="rgb(39,37,33)" stroke="rgb(39,37,33)" stroke-width="1" opacity="0.9921568627450981" d="M 90.5 36 L 91 38.5 L 90 38.5 L 90.5 36 Z " /><path fill="rgb(39,37,33)" stroke="rgb(39,37,33)" stroke-width="1" opacity="0.9921568627450981" d="M 63.5 37 L 64.5 39 L 63.5 37 Z " /><path fill="rgb(39,37,33)" stroke="rgb(39,37,33)" stroke-width="1" opacity="0.9921568627450981" d="M 80.5 38 L 81 40.5 L 80 40.5 L 80.5 38 Z " /><path fill="rgb(39,37,33)" stroke="rgb(39,37,33)" stroke-width="1" opacity="0.9921568627450981" d="M 36.5 40 L 37 42.5 L 36 42.5 L 36.5 40 Z " /><path fill="rgb(39,37,33)" stroke="rgb(39,37,33)" stroke-width="1" opacity="0.9921568627450981" d="M 38.5 40 L 39 43.5 L 38.5 46 L 36 45.5 Q 38.8 44.3 38.5 40 Z " /><path fill="rgb(39,37,33)" stroke="rgb(39,37,33)" stroke-width="1" opacity="0.9921568627450981" d="M 13.5 44 L 14.5 46 L 13.5 44 Z " /><path fill="rgb(39,37,33)" stroke="rgb(39,37,33)" stroke-width="1" opacity="0.9921568627450981" d="M 65.5 47 L 64.5 49 L 65.5 47 Z " /><path fill="rgb(39,37,33)" stroke="rgb(39,37,33)" stroke-width="1" opacity="0.9921568627450981" d="M 80.5 48 Q 82.8 47.3 82 49.5 L 80.5 48 Z " /><path fill="rgb(39,37,33)" stroke="rgb(39,37,33)" stroke-width="1" opacity="0.9921568627450981" d="M 46.5 49 L 45.5 51 L 46.5 49 Z " /><path fill="rgb(39,37,33)" stroke="rgb(39,37,33)" stroke-width="1" opacity="0.9921568627450981" d="M 47.5 51 L 48.5 53 L 47.5 51 Z " /><path fill="rgb(39,37,33)" stroke="rgb(39,37,33)" stroke-width="1" opacity="0.9921568627450981" d="M 73.5 55 L 74 57.5 L 73 57.5 L 73.5 55 Z " /><path fill="rgb(39,37,33)" stroke="rgb(39,37,33)" stroke-width="1" opacity="0.9921568627450981" d="M 20.5 56 L 19.5 58 L 20.5 56 Z " /><path fill="rgb(39,37,33)" stroke="rgb(39,37,33)" stroke-width="1" opacity="0.9921568627450981" d="M 57.5 63 L 56.5 65 L 57.5 63 Z " /><path fill="rgb(39,37,33)" stroke="rgb(39,37,33)" stroke-width="1" opacity="0.9921568627450981" d="M 10.5 64 L 11.5 66 L 10.5 64 Z " /><path fill="rgb(39,37,33)" stroke="rgb(39,37,33)" stroke-width="1" opacity="0.9921568627450981" d="M 11.5 69 L 12 71.5 L 11 71.5 L 11.5 69 Z " /><path fill="rgb(39,37,33)" stroke="rgb(39,37,33)" stroke-width="1" opacity="0.9921568627450981" d="M 53.5 69 L 56 69.5 L 53.5 70 L 53.5 69 Z " /><path fill="rgb(39,37,33)" stroke="rgb(39,37,33)" stroke-width="1" opacity="0.9921568627450981" d="M 46.5 71 Q 49.5 72.5 46.5 74 L 46.5 71 Z " /><path fill="rgb(39,37,33)" stroke="rgb(39,37,33)" stroke-width="1" opacity="0.9921568627450981" d="M 53.5 73 L 56 73.5 L 53.5 74 L 53.5 73 Z " /><path fill="rgb(39,37,33)" stroke="rgb(39,37,33)" stroke-width="1" opacity="0.9921568627450981" d="M 50.5 74 L 52 76.5 L 50 75.5 L 50.5 74 Z " /><path fill="rgb(39,37,33)" stroke="rgb(39,37,33)" stroke-width="1" opacity="0.9921568627450981" d="M 11.5 76 L 12 78.5 L 11 78.5 L 11.5 76 Z " /><path fill="rgb(39,37,33)" stroke="rgb(39,37,33)" stroke-width="1" opacity="0.9921568627450981" d="M 24.5 76 L 23.5 78 L 24.5 76 Z " /><path fill="rgb(39,37,33)" stroke="rgb(39,37,33)" stroke-width="1" opacity="0.9921568627450981" d="M 29.5 81 L 31 83.5 L 30 83.5 L 29.5 81 Z " /><path fill="rgb(39,37,33)" stroke="rgb(39,37,33)" stroke-width="1" opacity="0.9921568627450981" d="M 96.5 84 L 95.5 86 L 96.5 84 Z " /><path fill="rgb(39,37,33)" stroke="rgb(39,37,33)" stroke-width="1" opacity="0.9921568627450981" d="M 30.5 86 L 28.5 89 L 30.5 86 Z " /><path fill="rgb(39,37,33)" stroke="rgb(39,37,33)" stroke-width="1" opacity="0.9921568627450981" d="M 77.5 96 L 78 98.5 L 77 98.5 L 77.5 96 Z " /><path fill="rgb(251,242,191)" stroke="rgb(251,242,191)" stroke-width="1" opacity="0.996078431372549" d="M 43 39 Q 47.6 37.8 49 40.5 L 50 44.5 L 49 44.5 L 47.5 42 L 45 43.5 L 44 46.5 L 46 49.5 L 44.5 49 Q 42.3 49.8 43 47.5 Q 40.8 46.3 42 41.5 L 43 39 Z " /><path fill="rgb(251,242,191)" stroke="rgb(251,242,191)" stroke-width="1" opacity="0.996078431372549" d="M 60.5 39 Q 66 38 67 41.5 L 68 45.5 L 64.5 50 Q 59.4 50.6 58 47.5 Q 57 41 60.5 39 Z M 64 42 Q 60 43 61 48 L 65 49 L 67 45 L 64 42 Z " /><path fill="rgb(251,242,191)" stroke="rgb(251,242,191)" stroke-width="1" opacity="0.996078431372549" d="M 73.5 68 L 71.5 71 L 73.5 68 Z " /><path fill="rgb(251,242,191)" stroke="rgb(251,242,191)" stroke-width="1" opacity="0.996078431372549" d="M 82.5 69 L 83.5 71 L 82.5 69 Z " /><path fill="rgb(251,242,191)" stroke="rgb(251,242,191)" stroke-width="1" opacity="0.996078431372549" d="M 42.5 70 L 43.5 72 L 42.5 70 Z " /><path fill="rgb(251,242,191)" stroke="rgb(251,242,191)" stroke-width="1" opacity="0.996078431372549" d="M 85.5 71 L 90.5 77 L 85.5 71 Z " /><path fill="rgb(251,242,191)" stroke="rgb(251,242,191)" stroke-width="1" opacity="0.996078431372549" d="M 30.5 73 L 29.5 75 L 30.5 73 Z " /><path fill="rgb(251,242,191)" stroke="rgb(251,242,191)" stroke-width="1" opacity="0.996078431372549" d="M 68.5 73 L 66.5 76 L 68.5 73 Z " /><path fill="rgb(251,242,191)" stroke="rgb(251,242,191)" stroke-width="1" opacity="0.996078431372549" d="M 27.5 75 L 29.5 78 L 27.5 75 Z " /><path fill="rgb(251,242,191)" stroke="rgb(251,242,191)" stroke-width="1" opacity="0.996078431372549" d="M 45.5 75 L 46.5 77 L 45.5 75 Z " /><path fill="rgb(251,242,191)" stroke="rgb(251,242,191)" stroke-width="1" opacity="0.996078431372549" d="M 49.5 75 L 51.5 78 L 48 76.5 L 49.5 75 Z " /><path fill="rgb(251,242,191)" stroke="rgb(251,242,191)" stroke-width="1" opacity="0.996078431372549" d="M 38.5 79 L 39 81.5 L 38 81.5 L 38.5 79 Z " /><path fill="rgb(251,242,191)" stroke="rgb(251,242,191)" stroke-width="1" opacity="0.996078431372549" d="M 77.5 79 L 81 85.5 L 78 83.5 L 77.5 79 Z " /><path fill="rgb(251,242,191)" stroke="rgb(251,242,191)" stroke-width="1" opacity="0.996078431372549" d="M 92.5 79 L 96 83.5 L 95 83.5 L 92.5 79 Z " /><path fill="rgb(251,242,191)" stroke="rgb(251,242,191)" stroke-width="1" opacity="0.996078431372549" d="M 75.5 81 L 77 83.5 L 75 82.5 L 75.5 81 Z " /><path fill="rgb(251,242,191)" stroke="rgb(251,242,191)" stroke-width="1" opacity="0.996078431372549" d="M 31.5 82 L 32 87.5 L 31 87.5 L 31.5 82 Z " /><path fill="rgb(251,242,191)" stroke="rgb(251,242,191)" stroke-width="1" opacity="0.996078431372549" d="M 35.5 83 L 36 85.5 L 35 85.5 L 35.5 83 Z " /><path fill="rgb(251,242,191)" stroke="rgb(251,242,191)" stroke-width="1" opacity="0.996078431372549" d="M 37.5 85 L 38 87.5 L 37 87.5 L 37.5 85 Z " /><path fill="rgb(251,242,191)" stroke="rgb(251,242,191)" stroke-width="1" opacity="0.996078431372549" d="M 88.5 86 L 84.5 91 L 81.5 87 L 84.5 90 L 88.5 86 Z " /><path fill="rgb(251,242,191)" stroke="rgb(251,242,191)" stroke-width="1" opacity="0.996078431372549" d="M 36.5 91 L 37 94.5 L 36 94.5 L 36.5 91 Z " /><path fill="rgb(251,242,191)" stroke="rgb(251,242,191)" stroke-width="1" opacity="0.996078431372549" d="M 76.5 93 L 77 105.5 L 76 105.5 L 76.5 93 Z " /><path fill="rgb(251,242,191)" stroke="rgb(251,242,191)" stroke-width="1" opacity="0.996078431372549" d="M 35.5 99 L 36 102.5 L 35 102.5 L 35.5 99 Z " /><path fill="rgb(251,242,191)" stroke="rgb(251,242,191)" stroke-width="1" opacity="0.996078431372549" d="M 54.5 111 L 58 111.5 L 54.5 112 L 54.5 111 Z " /><path fill="rgb(251,242,191)" stroke="rgb(251,242,191)" stroke-width="1" opacity="0.996078431372549" d="M 59.5 111 L 63 111.5 L 59.5 112 L 59.5 111 Z " /><path fill="rgb(153,120,75)" stroke="rgb(153,120,75)" stroke-width="1" opacity="0.9215686274509803" d="M 94.5 34 L 95 36.5 L 94 36.5 L 94.5 34 Z " /><path fill="rgb(153,120,75)" stroke="rgb(153,120,75)" stroke-width="1" opacity="0.9215686274509803" d="M 44.5 37 L 47 37.5 Q 44.9 40.8 44.5 37 Z " /><path fill="rgb(153,120,75)" stroke="rgb(153,120,75)" stroke-width="1" opacity="0.9215686274509803" d="M 61.5 37 L 63.5 38 L 65 37.5 L 62.5 39 L 61.5 37 Z " /><path fill="rgb(153,120,75)" stroke="rgb(153,120,75)" stroke-width="1" opacity="0.9215686274509803" d="M 41.5 42 L 40.5 44 L 41.5 42 Z " /><path fill="rgb(153,120,75)" stroke="rgb(153,120,75)" stroke-width="1" opacity="0.9215686274509803" d="M 67.5 42 L 68.5 44 L 67.5 42 Z " /><path fill="rgb(153,120,75)" stroke="rgb(153,120,75)" stroke-width="1" opacity="0.9215686274509803" d="M 29.5 43 L 30 45.5 L 29 45.5 L 29.5 43 Z " /><path fill="rgb(153,120,75)" stroke="rgb(153,120,75)" stroke-width="1" opacity="0.9215686274509803" d="M 24.5 50 L 23.5 52 L 24.5 50 Z " /><path fill="rgb(153,120,75)" stroke="rgb(153,120,75)" stroke-width="1" opacity="0.9215686274509803" d="M 20.5 53 L 22 55.5 L 20 56 L 20.5 53 Z " /><path fill="rgb(153,120,75)" stroke="rgb(153,120,75)" stroke-width="1" opacity="0.9215686274509803" d="M 41.5 54 L 40.5 56 L 41.5 54 Z " /><path fill="rgb(153,120,75)" stroke="rgb(153,120,75)" stroke-width="1" opacity="0.9215686274509803" d="M 66.5 54 L 64.5 57 L 66.5 54 Z " /><path fill="rgb(153,120,75)" stroke="rgb(153,120,75)" stroke-width="1" opacity="0.9215686274509803" d="M 43.5 57 L 42.5 59 L 43.5 57 Z " /><path fill="rgb(153,120,75)" stroke="rgb(153,120,75)" stroke-width="1" opacity="0.9215686274509803" d="M 62.5 66 L 60.5 69 L 62.5 66 Z " /><path fill="rgb(153,120,75)" stroke="rgb(153,120,75)" stroke-width="1" opacity="0.9215686274509803" d="M 53.5 70 L 56 70.5 L 53.5 71 L 53.5 70 Z " /><path fill="rgb(153,120,75)" stroke="rgb(153,120,75)" stroke-width="1" opacity="0.9215686274509803" d="M 49.5 111 L 52 111.5 L 49.5 112 L 49.5 111 Z " /><path fill="rgb(7,5,3)" stroke="rgb(7,5,3)" stroke-width="1" opacity="0.9254901960784314" d="M 54.5 7 L 57 7.5 L 54 8.5 L 57.5 9 L 59.5 9 L 89 16.5 L 86.5 17 L 58.5 9 L 28 18.5 L 41.5 22 L 44.5 18 Q 52.1 14.1 65.5 16 L 78 20 L 79.5 24 L 91.5 21 L 91.5 22 L 79 25 L 80 31.5 Q 77.5 33 81 34.5 L 80.5 38 Q 80.8 33.8 78 32.5 L 79 28.5 L 75.5 20 L 64.5 17 L 51.5 17 L 44 19 L 41.5 25 L 41 23 L 24 19 Q 22.5 15.3 25.5 16 L 25.5 18 L 54 9.5 L 51 8.5 L 54.5 7 Z " /><path fill="rgb(7,5,3)" stroke="rgb(7,5,3)" stroke-width="1" opacity="0.9254901960784314" d="M 61.5 7 L 75 10.5 L 72.5 11 L 61.5 8 L 61.5 7 Z " /><path fill="rgb(7,5,3)" stroke="rgb(7,5,3)" stroke-width="1" opacity="0.9254901960784314" d="M 47.5 9 L 50 9.5 L 44.5 11 L 44.5 10 L 47.5 9 Z " /><path fill="rgb(7,5,3)" stroke="rgb(7,5,3)" stroke-width="1" opacity="0.9254901960784314" d="M 76.5 11 L 79 11.5 L 76.5 12 L 76.5 11 Z " /><path fill="rgb(7,5,3)" stroke="rgb(7,5,3)" stroke-width="1" opacity="0.9254901960784314" d="M 37.5 12 L 40 12.5 L 34.5 14 L 34.5 13 L 37.5 12 Z " /><path fill="rgb(7,5,3)" stroke="rgb(7,5,3)" stroke-width="1" opacity="0.9254901960784314" d="M 80.5 12 L 83 12.5 L 80.5 13 L 80.5 12 Z " /><path fill="rgb(7,5,3)" stroke="rgb(7,5,3)" stroke-width="1" opacity="0.9254901960784314" d="M 84.5 13 L 87 13.5 L 84.5 14 L 84.5 13 Z " /><path fill="rgb(7,5,3)" stroke="rgb(7,5,3)" stroke-width="1" opacity="0.9254901960784314" d="M 88.5 14 L 91 14.5 L 88.5 15 L 88.5 14 Z " /><path fill="rgb(7,5,3)" stroke="rgb(7,5,3)" stroke-width="1" opacity="0.9254901960784314" d="M 27.5 15 L 30 15.5 L 27.5 16 L 27.5 15 Z " /><path fill="rgb(7,5,3)" stroke="rgb(7,5,3)" stroke-width="1" opacity="0.9254901960784314" d="M 90 16 Q 93 15 92 18 Q 89 19 90 16 Z " /><path fill="rgb(7,5,3)" stroke="rgb(7,5,3)" stroke-width="1" opacity="0.9254901960784314" d="M 94 16 L 97 16.5 L 95 17.5 L 101 19.5 L 94.5 22 L 94 16 Z " /><path fill="rgb(7,5,3)" stroke="rgb(7,5,3)" stroke-width="1" opacity="0.9254901960784314" d="M 94.5 24 L 95.5 26 L 94.5 24 Z " /><path fill="rgb(7,5,3)" stroke="rgb(7,5,3)" stroke-width="1" opacity="0.9254901960784314" d="M 40.5 26 L 41 27.5 L 40 29.5 L 42 29.5 L 38 32.5 L 40.5 26 Z " /><path fill="rgb(7,5,3)" stroke="rgb(7,5,3)" stroke-width="1" opacity="0.9254901960784314" d="M 95.5 27 L 94.5 29 L 95.5 27 Z " /><path fill="rgb(7,5,3)" stroke="rgb(7,5,3)" stroke-width="1" opacity="0.9254901960784314" d="M 43.5 28 L 47 28.5 L 43.5 29 L 43.5 28 Z " /><path fill="rgb(7,5,3)" stroke="rgb(7,5,3)" stroke-width="1" opacity="0.9254901960784314" d="M 60.5 28 L 63 28.5 L 60.5 29 L 60.5 28 Z " /><path fill="rgb(7,5,3)" stroke="rgb(7,5,3)" stroke-width="1" opacity="0.9254901960784314" d="M 67.5 28 L 71 28.5 L 67.5 29 L 67.5 28 Z " /><path fill="rgb(7,5,3)" stroke="rgb(7,5,3)" stroke-width="1" opacity="0.9254901960784314" d="M 92.5 28 L 92 29.5 L 91.5 31 L 91 29.5 L 92.5 28 Z " /><path fill="rgb(7,5,3)" stroke="rgb(7,5,3)" stroke-width="1" opacity="0.9254901960784314" d="M 48.5 29 L 53.5 32 L 56.5 30 L 55.5 32 L 53.5 33 L 48.5 30 L 48.5 29 Z " /><path fill="rgb(7,5,3)" stroke="rgb(7,5,3)" stroke-width="1" opacity="0.9254901960784314" d="M 72.5 29 L 77 31.5 L 75.5 31 Q 71.7 30.8 72.5 29 Z " /><path fill="rgb(7,5,3)" stroke="rgb(7,5,3)" stroke-width="1" opacity="0.9254901960784314" d="M 62.5 32 L 67 32.5 L 62.5 33 L 62.5 32 Z " /><path fill="rgb(7,5,3)" stroke="rgb(7,5,3)" stroke-width="1" opacity="0.9254901960784314" d="M 59.5 33 L 61 33.5 L 57.5 36 L 59.5 33 Z " /><path fill="rgb(7,5,3)" stroke="rgb(7,5,3)" stroke-width="1" opacity="0.9254901960784314" d="M 68.5 33 L 72 37.5 L 71 37.5 L 68.5 33 Z " /><path fill="rgb(7,5,3)" stroke="rgb(7,5,3)" stroke-width="1" opacity="0.9254901960784314" d="M 49.5 34 L 51.5 37 L 49.5 34 Z " /><path fill="rgb(7,5,3)" stroke="rgb(7,5,3)" stroke-width="1" opacity="0.9254901960784314" d="M 36.5 37 L 37 39.5 L 35 38.5 L 36.5 37 Z " /><path fill="rgb(7,5,3)" stroke="rgb(7,5,3)" stroke-width="1" opacity="0.9254901960784314" d="M 13.5 38 L 13 39.5 L 12.5 42 L 10 40.5 L 13.5 38 Z " /><path fill="rgb(7,5,3)" stroke="rgb(7,5,3)" stroke-width="1" opacity="0.9254901960784314" d="M 16.5 38 L 17.5 40 L 16.5 38 Z " /><path fill="rgb(7,5,3)" stroke="rgb(7,5,3)" stroke-width="1" opacity="0.9254901960784314" d="M 31.5 38 L 29.5 41 L 31.5 38 Z " /><path fill="rgb(7,5,3)" stroke="rgb(7,5,3)" stroke-width="1" opacity="0.9254901960784314" d="M 43.5 38 L 42.5 40 L 43.5 38 Z " /><path fill="rgb(7,5,3)" stroke="rgb(7,5,3)" stroke-width="1" opacity="0.9254901960784314" d="M 47.5 38 L 48.5 40 L 47.5 38 Z " /><path fill="rgb(7,5,3)" stroke="rgb(7,5,3)" stroke-width="1" opacity="0.9254901960784314" d="M 52.5 38 L 55 38.5 Q 52.9 41.8 52.5 38 Z " /><path fill="rgb(7,5,3)" stroke="rgb(7,5,3)" stroke-width="1" opacity="0.9254901960784314" d="M 65.5 38 L 66.5 40 L 65.5 38 Z " /><path fill="rgb(7,5,3)" stroke="rgb(7,5,3)" stroke-width="1" opacity="0.9254901960784314" d="M 72.5 39 L 73 44.5 L 72 44.5 L 72.5 39 Z " /><path fill="rgb(7,5,3)" stroke="rgb(7,5,3)" stroke-width="1" opacity="0.9254901960784314" d="M 83.5 39 L 87 39.5 L 83.5 40 L 83.5 39 Z " /><path fill="rgb(7,5,3)" stroke="rgb(7,5,3)" stroke-width="1" opacity="0.9254901960784314" d="M 81.5 40 L 77.5 45 L 81.5 40 Z " /><path fill="rgb(7,5,3)" stroke="rgb(7,5,3)" stroke-width="1" opacity="0.9254901960784314" d="M 88.5 40 L 90.5 43 L 88.5 40 Z " /><path fill="rgb(7,5,3)" stroke="rgb(7,5,3)" stroke-width="1" opacity="0.9254901960784314" d="M 8.5 42 L 9 45 L 6 46.5 L 5.5 48 L 5 46.5 L 8.5 42 Z " /><path fill="rgb(7,5,3)" stroke="rgb(7,5,3)" stroke-width="1" opacity="0.9254901960784314" d="M 28.5 43 L 29 45.5 L 28 45.5 L 28.5 43 Z " /><path fill="rgb(7,5,3)" stroke="rgb(7,5,3)" stroke-width="1" opacity="0.9254901960784314" d="M 46.5 43 L 49 44.5 L 48 47.5 L 54 48.5 L 46.5 49 Q 44.3 48.3 45 44.5 L 46.5 43 Z " /><path fill="rgb(7,5,3)" stroke="rgb(7,5,3)" stroke-width="1" opacity="0.9254901960784314" d="M 63.5 43 Q 67.7 41.7 66 46.5 Q 64 51 62 47.5 Q 61.3 43.8 63.5 43 Z " /><path fill="rgb(7,5,3)" stroke="rgb(7,5,3)" stroke-width="1" opacity="0.9254901960784314" d="M 84.5 45 L 88 46.5 L 86.5 46 Q 83.5 46.5 84.5 45 Z " /><path fill="rgb(7,5,3)" stroke="rgb(7,5,3)" stroke-width="1" opacity="0.9254901960784314" d="M 20.5 48 L 21 50.5 L 20 50.5 L 20.5 48 Z " /><path fill="rgb(7,5,3)" stroke="rgb(7,5,3)" stroke-width="1" opacity="0.9254901960784314" d="M 29.5 48 L 34.5 55 L 36 54.5 L 36 60.5 L 43 69.5 L 40.5 68 L 39.5 69 L 38 68.5 L 40 67.5 L 37 64.5 L 33.5 55 Q 31.3 55.8 32 53.5 L 29.5 50 L 28 50.5 L 29.5 48 Z " /><path fill="rgb(7,5,3)" stroke="rgb(7,5,3)" stroke-width="1" opacity="0.9254901960784314" d="M 91.5 48 L 92 50.5 L 91 50.5 L 91.5 48 Z " /><path fill="rgb(7,5,3)" stroke="rgb(7,5,3)" stroke-width="1" opacity="0.9254901960784314" d="M 24.5 49 L 22.5 52 L 24.5 49 Z " /><path fill="rgb(7,5,3)" stroke="rgb(7,5,3)" stroke-width="1" opacity="0.9254901960784314" d="M 38.5 49 L 37 51.5 L 36.5 53 L 36 51.5 L 38.5 49 Z " /><path fill="rgb(7,5,3)" stroke="rgb(7,5,3)" stroke-width="1" opacity="0.9254901960784314" d="M 70.5 49 L 72.5 52 L 70.5 49 Z " /><path fill="rgb(7,5,3)" stroke="rgb(7,5,3)" stroke-width="1" opacity="0.9254901960784314" d="M 80.5 49 L 79.5 51 L 80.5 49 Z " /><path fill="rgb(7,5,3)" stroke="rgb(7,5,3)" stroke-width="1" opacity="0.9254901960784314" d="M 82.5 49 L 83.5 51 L 82.5 49 Z " /><path fill="rgb(7,5,3)" stroke="rgb(7,5,3)" stroke-width="1" opacity="0.9254901960784314" d="M 6.5 51 L 7 53.5 L 6 53.5 L 6.5 51 Z " /><path fill="rgb(7,5,3)" stroke="rgb(7,5,3)" stroke-width="1" opacity="0.9254901960784314" d="M 53.5 51 L 52.5 53 L 53.5 51 Z " /><path fill="rgb(7,5,3)" stroke="rgb(7,5,3)" stroke-width="1" opacity="0.9254901960784314" d="M 28.5 52 L 28 53.5 L 26.5 57 L 26 55.5 L 28.5 52 Z " /><path fill="rgb(7,5,3)" stroke="rgb(7,5,3)" stroke-width="1" opacity="0.9254901960784314" d="M 83.5 53 L 81.5 56 L 83.5 53 Z " /><path fill="rgb(7,5,3)" stroke="rgb(7,5,3)" stroke-width="1" opacity="0.9254901960784314" d="M 89.5 54 L 88 56.5 Q 88.8 58.8 86.5 58 Q 85.1 61.6 79.5 61 L 79.5 60 Q 87.2 59.7 89.5 54 Z " /><path fill="rgb(7,5,3)" stroke="rgb(7,5,3)" stroke-width="1" opacity="0.9254901960784314" d="M 7.5 56 L 8 59.5 L 7 59.5 L 7.5 56 Z " /><path fill="rgb(7,5,3)" stroke="rgb(7,5,3)" stroke-width="1" opacity="0.9254901960784314" d="M 41.5 56 L 43.5 59 L 41.5 56 Z " /><path fill="rgb(7,5,3)" stroke="rgb(7,5,3)" stroke-width="1" opacity="0.9254901960784314" d="M 25.5 58 L 26 60.5 L 21.5 67 L 20.5 65 L 24 62.5 L 25.5 58 Z " /><path fill="rgb(7,5,3)" stroke="rgb(7,5,3)" stroke-width="1" opacity="0.9254901960784314" d="M 77.5 59 L 77 60.5 L 75 64.5 L 77 65.5 L 72.5 68 L 74 65.5 L 77.5 59 Z " /><path fill="rgb(7,5,3)" stroke="rgb(7,5,3)" stroke-width="1" opacity="0.9254901960784314" d="M 8.5 61 L 11.5 66 L 14 66.5 L 12 67 L 11.5 69 L 8 62.5 L 8.5 61 Z " /><path fill="rgb(7,5,3)" stroke="rgb(7,5,3)" stroke-width="1" opacity="0.9254901960784314" d="M 72.5 61 L 73 62.5 L 71 63.5 L 72.5 61 Z " /><path fill="rgb(7,5,3)" stroke="rgb(7,5,3)" stroke-width="1" opacity="0.9254901960784314" d="M 64.5 62 L 63.5 64 L 64.5 62 Z " /><path fill="rgb(7,5,3)" stroke="rgb(7,5,3)" stroke-width="1" opacity="0.9254901960784314" d="M 62.5 65 L 59.5 69 L 62.5 65 Z " /><path fill="rgb(7,5,3)" stroke="rgb(7,5,3)" stroke-width="1" opacity="0.9254901960784314" d="M 70.5 65 L 65.5 71 L 70.5 65 Z " /><path fill="rgb(7,5,3)" stroke="rgb(7,5,3)" stroke-width="1" opacity="0.9254901960784314" d="M 83.5 68 L 90 73.5 L 102 90.5 L 99 88.5 L 95 80.5 L 83.5 68 Z " /><path fill="rgb(7,5,3)" stroke="rgb(7,5,3)" stroke-width="1" opacity="0.9254901960784314" d="M 22.5 69 L 23 72.5 L 22 72.5 L 22.5 69 Z " /><path fill="rgb(7,5,3)" stroke="rgb(7,5,3)" stroke-width="1" opacity="0.9254901960784314" d="M 35.5 69 L 37 69.5 L 28.5 74 L 29.5 72 L 35.5 69 Z " /><path fill="rgb(7,5,3)" stroke="rgb(7,5,3)" stroke-width="1" opacity="0.9254901960784314" d="M 71.5 69 L 68.5 73 L 71.5 69 Z " /><path fill="rgb(7,5,3)" stroke="rgb(7,5,3)" stroke-width="1" opacity="0.9254901960784314" d="M 44.5 70 L 45.5 72 L 44.5 70 Z " /><path fill="rgb(7,5,3)" stroke="rgb(7,5,3)" stroke-width="1" opacity="0.9254901960784314" d="M 10.5 72 L 11 76.5 L 10 76.5 L 10.5 72 Z " /><path fill="rgb(7,5,3)" stroke="rgb(7,5,3)" stroke-width="1" opacity="0.9254901960784314" d="M 48.5 72 L 53 73.5 L 49.5 74 L 48.5 72 Z " /><path fill="rgb(7,5,3)" stroke="rgb(7,5,3)" stroke-width="1" opacity="0.9254901960784314" d="M 56.5 73 L 60 73.5 L 56.5 74 L 56.5 73 Z " /><path fill="rgb(7,5,3)" stroke="rgb(7,5,3)" stroke-width="1" opacity="0.9254901960784314" d="M 66.5 73 L 65.5 75 L 66.5 73 Z " /><path fill="rgb(7,5,3)" stroke="rgb(7,5,3)" stroke-width="1" opacity="0.9254901960784314" d="M 23.5 74 L 24 76.5 L 23 76.5 L 23.5 74 Z " /><path fill="rgb(7,5,3)" stroke="rgb(7,5,3)" stroke-width="1" opacity="0.9254901960784314" d="M 26.5 74 L 26.5 77 Q 23.5 75.5 26.5 74 Z " /><path fill="rgb(7,5,3)" stroke="rgb(7,5,3)" stroke-width="1" opacity="0.9254901960784314" d="M 63.5 75 L 62.5 77 L 61 76.5 L 63.5 75 Z " /><path fill="rgb(7,5,3)" stroke="rgb(7,5,3)" stroke-width="1" opacity="0.9254901960784314" d="M 47.5 76 L 48.5 78 L 47.5 76 Z " /><path fill="rgb(7,5,3)" stroke="rgb(7,5,3)" stroke-width="1" opacity="0.9254901960784314" d="M 54.5 77 L 60 77.5 L 54.5 78 L 54.5 77 Z " /><path fill="rgb(7,5,3)" stroke="rgb(7,5,3)" stroke-width="1" opacity="0.9254901960784314" d="M 11.5 79 Q 11.5 86 15.5 89 L 24.5 90 L 29.5 88 L 30.5 90 L 28.5 91 L 25.5 90 Q 23.8 92.8 17.5 91 L 13 87.5 Q 9.9 84.5 11.5 79 Z " /><path fill="rgb(7,5,3)" stroke="rgb(7,5,3)" stroke-width="1" opacity="0.9254901960784314" d="M 78.5 85 L 84.5 92 L 87 90.5 L 85.5 93 L 87 93.5 L 79.5 106 L 79 104.5 L 85 93.5 L 79.5 87 L 78.5 92 L 78.5 85 Z " /><path fill="rgb(7,5,3)" stroke="rgb(7,5,3)" stroke-width="1" opacity="0.9254901960784314" d="M 89.5 87 L 88.5 89 L 89.5 87 Z " /><path fill="rgb(7,5,3)" stroke="rgb(7,5,3)" stroke-width="1" opacity="0.9254901960784314" d="M 35.5 89 L 36 92.5 L 35 92.5 L 35.5 89 Z " /><path fill="rgb(7,5,3)" stroke="rgb(7,5,3)" stroke-width="1" opacity="0.9254901960784314" d="M 34.5 95 L 35 100.5 L 34 100.5 L 34.5 95 Z " /><path fill="rgb(7,5,3)" stroke="rgb(7,5,3)" stroke-width="1" opacity="0.9254901960784314" d="M 77.5 99 L 79 107.5 L 77 108.5 L 77.5 99 Z " /><path fill="rgb(224,161,93)" stroke="rgb(224,161,93)" stroke-width="1" opacity="0.9882352941176471" d="M 93.5 17 L 94 23.5 L 93 23.5 L 93.5 17 Z " /><path fill="rgb(224,161,93)" stroke="rgb(224,161,93)" stroke-width="1" opacity="0.9882352941176471" d="M 93.5 25 Q 96.5 24.2 95 28 L 92 26.5 L 93.5 25 Z " /><path fill="rgb(224,161,93)" stroke="rgb(224,161,93)" stroke-width="1" opacity="0.9882352941176471" d="M 92 29 L 95 30.5 L 96 38.5 L 95 38.5 L 94.5 34 L 93.5 39 L 92.5 34 L 91 34.5 L 92 29 Z " /><path fill="rgb(224,161,93)" stroke="rgb(224,161,93)" stroke-width="1" opacity="0.9882352941176471" d="M 44.5 33 L 51 36.5 L 51 39 L 53 39 Q 51.9 41.7 54.5 41 L 54.5 39 L 62.5 33 L 65.5 34 L 67 33.5 L 67.5 35 L 69 34.5 L 72 39.5 L 71 42.5 L 72 44.5 Q 68.9 46.3 70.5 48 Q 67.9 47.2 69 50.5 L 72 51.5 L 73 53.5 L 72 58.5 Q 74.5 60 71 61.5 L 66.5 69 L 64 69 Q 65.1 71.7 62.5 71 Q 58.8 74.3 50.5 73 L 46.5 71 L 45 71.5 L 46 73.5 L 45 73.5 L 44 71.5 L 45 69 L 39 65.5 Q 41.3 64.3 38.5 63 L 37 62.5 L 37 58.5 L 38 50 L 35 49.5 L 36.5 47 L 38.5 50 L 41 48.5 L 39 45.5 L 41 44.5 L 45 52 L 50 54 L 50 51 Q 47 52 48 49 L 52.5 50 L 53.5 49 L 56.5 52 L 58 50.5 L 56 50 Q 57.1 47.3 54.5 48 L 52.5 47 L 50 48 L 50 39 Q 47 40 48 37 L 43 37 L 43 39 Q 40.3 37.9 41 40.5 L 40 40.5 L 39 38.5 L 41 37.5 L 40.5 36 L 44.5 33 Z M 60 37 L 58 41 L 57 47 Q 58 51 65 50 Q 69 50 68 45 L 69 42 L 68 40 Q 66 36 60 37 Z M 54 50 Q 52 53 55 52 L 54 50 Z M 66 52 L 66 54 Q 64 58 58 59 L 56 59 Q 57 61 50 60 Q 48 56 47 59 Q 45 56 42 57 L 43 60 L 42 62 L 44 62 L 48 69 L 51 70 L 54 71 Q 60 71 63 67 Q 62 64 65 65 L 66 62 L 68 58 L 67 55 L 70 55 L 66 52 Z M 39 53 L 40 56 Q 39 58 42 57 Q 44 56 42 55 Q 43 52 39 53 Z " /><path fill="rgb(224,161,93)" stroke="rgb(224,161,93)" stroke-width="1" opacity="0.9882352941176471" d="M 16.5 39 L 16.5 41 L 18 41.5 L 18 45.5 L 20 49.5 L 19 52.5 L 20 56 Q 17 54.8 18 58.5 Q 14.3 60.3 17.5 62 L 23 54.5 L 22.5 53 L 26.5 50 L 28 52.5 L 25 54.5 Q 27.5 56 24 57.5 L 25 59.5 L 17.5 66 L 15.5 66 L 13.5 65 L 12 65.5 L 9 61.5 L 9 57.5 L 7 52.5 L 8 49.5 L 6 46.5 L 7.5 46 L 11 51.5 L 10 54 L 17 53 L 15 47.5 L 16 45.5 L 13 40.5 L 16.5 39 Z " /><path fill="rgb(224,161,93)" stroke="rgb(224,161,93)" stroke-width="1" opacity="0.9882352941176471" d="M 31.5 39 L 33.5 39 Q 36.1 38.2 35 41.5 L 35.5 43 L 32.5 42 L 30 43.5 L 31.5 39 Z " /><path fill="rgb(224,161,93)" stroke="rgb(224,161,93)" stroke-width="1" opacity="0.9882352941176471" d="M 84.5 40 L 90 42.5 L 89.5 44 L 91 44.5 L 90 48.5 L 91 49.5 Q 87.9 51.3 89.5 53 Q 87.3 52.3 88 54.5 L 80.5 60 L 77 58 L 78 47.5 L 77.5 46 L 79 45.5 L 78.5 44 Q 81.1 44.7 80 42 L 82.5 42 L 84.5 40 Z M 85 44 L 83 45 L 79 49 L 80 50 L 78 51 L 83 51 L 82 53 L 85 54 L 85 52 L 83 49 L 84 47 L 87 46 Q 88 43 85 44 Z M 87 46 Q 86 49 89 48 Q 90 45 87 46 Z M 82 54 Q 79 56 82 57 L 83 55 L 82 54 Z " /><path fill="rgb(224,161,93)" stroke="rgb(224,161,93)" stroke-width="1" opacity="0.9882352941176471" d="M 10.5 41 L 12 45 L 14 45.5 L 13 47.5 Q 16.8 49.3 13.5 51 L 11 49.5 L 11 47.5 L 9 42.5 L 10.5 41 Z " /><path fill="rgb(224,161,93)" stroke="rgb(224,161,93)" stroke-width="1" opacity="0.9882352941176471" d="M 32.5 44 L 35 45.5 L 33 49.5 L 34 52 L 36 52.5 Q 34 56 32 51.5 L 30 45.5 L 32 45.5 L 32.5 44 Z " /><path fill="rgb(224,161,93)" stroke="rgb(224,161,93)" stroke-width="1" opacity="0.9882352941176471" d="M 55.5 63 L 58.5 64 L 62.5 63 L 62 64.5 L 59.5 68 L 51.5 69 L 50 66.5 L 55.5 63 Z " /><path fill="rgb(89,61,34)" stroke="rgb(89,61,34)" stroke-width="1" opacity="0.9607843137254902" d="M 45.5 37 L 46.5 39 L 45.5 37 Z " /><path fill="rgb(89,61,34)" stroke="rgb(89,61,34)" stroke-width="1" opacity="0.9607843137254902" d="M 62.5 37 L 61.5 39 L 62.5 37 Z " /><path fill="rgb(89,61,34)" stroke="rgb(89,61,34)" stroke-width="1" opacity="0.9607843137254902" d="M 39.5 46 L 40 49 L 38 48.5 L 39.5 46 Z " /><path fill="rgb(89,61,34)" stroke="rgb(89,61,34)" stroke-width="1" opacity="0.9607843137254902" d="M 11.5 72 L 12 75.5 L 11 75.5 L 11.5 72 Z " /><path fill="rgb(89,61,34)" stroke="rgb(89,61,34)" stroke-width="1" opacity="0.9607843137254902" d="M 24.5 77 L 23.5 79 L 24.5 77 Z " /><path fill="rgb(89,61,34)" stroke="rgb(89,61,34)" stroke-width="1" opacity="0.9607843137254902" d="M 35.5 86 L 36.5 88 L 35.5 86 Z " /><path fill="rgb(89,61,34)" stroke="rgb(89,61,34)" stroke-width="1" opacity="0.9607843137254902" d="M 77.5 93 L 78 95.5 L 77 95.5 L 77.5 93 Z " /><path fill="rgb(249,209,138)" stroke="rgb(249,209,138)" stroke-width="1" opacity="0.996078431372549" d="M 63.5 33 L 66 33.5 L 63.5 34 L 63.5 33 Z " /><path fill="rgb(249,209,138)" stroke="rgb(249,209,138)" stroke-width="1" opacity="0.996078431372549" d="M 42.5 34 L 41.5 36 L 42.5 34 Z " /><path fill="rgb(249,209,138)" stroke="rgb(249,209,138)" stroke-width="1" opacity="0.996078431372549" d="M 58.5 35 L 55.5 39 L 58.5 35 Z " /><path fill="rgb(249,209,138)" stroke="rgb(249,209,138)" stroke-width="1" opacity="0.996078431372549" d="M 91.5 35 L 92 37.5 L 91 37.5 L 91.5 35 Z " /><path fill="rgb(249,209,138)" stroke="rgb(249,209,138)" stroke-width="1" opacity="0.996078431372549" d="M 65.5 37 L 67.5 40 L 65 39.5 L 65.5 37 Z " /><path fill="rgb(249,209,138)" stroke="rgb(249,209,138)" stroke-width="1" opacity="0.996078431372549" d="M 14.5 39 L 17 40.5 L 15.5 40 L 14.5 39 Z " /><path fill="rgb(249,209,138)" stroke="rgb(249,209,138)" stroke-width="1" opacity="0.996078431372549" d="M 35.5 39 L 36 41.5 L 35 41.5 L 35.5 39 Z " /><path fill="rgb(249,209,138)" stroke="rgb(249,209,138)" stroke-width="1" opacity="0.996078431372549" d="M 39.5 39 L 41 41.5 L 39.5 45 L 39.5 39 Z " /><path fill="rgb(249,209,138)" stroke="rgb(249,209,138)" stroke-width="1" opacity="0.996078431372549" d="M 71.5 40 L 72 42.5 L 71 42.5 L 71.5 40 Z " /><path fill="rgb(249,209,138)" stroke="rgb(249,209,138)" stroke-width="1" opacity="0.996078431372549" d="M 11.5 42 L 13 44.5 L 12 44.5 L 11.5 42 Z " /><path fill="rgb(249,209,138)" stroke="rgb(249,209,138)" stroke-width="1" opacity="0.996078431372549" d="M 32.5 42 L 34 42.5 L 30.5 45 L 32.5 42 Z " /><path fill="rgb(249,209,138)" stroke="rgb(249,209,138)" stroke-width="1" opacity="0.996078431372549" d="M 41.5 43 L 42 45.5 L 41 45.5 L 41.5 43 Z " /><path fill="rgb(249,209,138)" stroke="rgb(249,209,138)" stroke-width="1" opacity="0.996078431372549" d="M 67.5 43 L 66.5 45 L 67.5 43 Z " /><path fill="rgb(249,209,138)" stroke="rgb(249,209,138)" stroke-width="1" opacity="0.996078431372549" d="M 84.5 44 L 87 44.5 L 84.5 45 L 84.5 44 Z " /><path fill="rgb(249,209,138)" stroke="rgb(249,209,138)" stroke-width="1" opacity="0.996078431372549" d="M 82.5 45 L 79.5 49 L 82.5 45 Z " /><path fill="rgb(249,209,138)" stroke="rgb(249,209,138)" stroke-width="1" opacity="0.996078431372549" d="M 90.5 45 L 91 48.5 L 90 48.5 L 90.5 45 Z " /><path fill="rgb(249,209,138)" stroke="rgb(249,209,138)" stroke-width="1" opacity="0.996078431372549" d="M 34.5 46 L 34 47.5 L 33.5 50 L 33 47.5 L 34.5 46 Z " /><path fill="rgb(249,209,138)" stroke="rgb(249,209,138)" stroke-width="1" opacity="0.996078431372549" d="M 83.5 47 L 82.5 49 L 83.5 47 Z " /><path fill="rgb(249,209,138)" stroke="rgb(249,209,138)" stroke-width="1" opacity="0.996078431372549" d="M 45.5 48 L 44.5 50 L 45.5 48 Z " /><path fill="rgb(249,209,138)" stroke="rgb(249,209,138)" stroke-width="1" opacity="0.996078431372549" d="M 7.5 49 L 8 51.5 L 7 51.5 L 7.5 49 Z " /><path fill="rgb(249,209,138)" stroke="rgb(249,209,138)" stroke-width="1" opacity="0.996078431372549" d="M 50.5 49 L 54 50.5 L 52.5 50 Q 49.5 50.5 50.5 49 Z " /><path fill="rgb(249,209,138)" stroke="rgb(249,209,138)" stroke-width="1" opacity="0.996078431372549" d="M 14.5 50 L 13.5 52 L 12 51.5 L 14.5 50 Z " /><path fill="rgb(249,209,138)" stroke="rgb(249,209,138)" stroke-width="1" opacity="0.996078431372549" d="M 19.5 50 L 20 52.5 L 19 52.5 L 19.5 50 Z " /><path fill="rgb(249,209,138)" stroke="rgb(249,209,138)" stroke-width="1" opacity="0.996078431372549" d="M 25.5 50 L 23.5 53 L 25.5 50 Z " /><path fill="rgb(249,209,138)" stroke="rgb(249,209,138)" stroke-width="1" opacity="0.996078431372549" d="M 47.5 50 L 46.5 52 L 47.5 50 Z " /><path fill="rgb(249,209,138)" stroke="rgb(249,209,138)" stroke-width="1" opacity="0.996078431372549" d="M 32.5 52 L 34.5 55 L 32.5 52 Z " /><path fill="rgb(249,209,138)" stroke="rgb(249,209,138)" stroke-width="1" opacity="0.996078431372549" d="M 66.5 52 L 70 54.5 L 67.5 53 L 66.5 52 Z " /><path fill="rgb(249,209,138)" stroke="rgb(249,209,138)" stroke-width="1" opacity="0.996078431372549" d="M 26.5 53 L 25.5 55 L 26.5 53 Z " /><path fill="rgb(249,209,138)" stroke="rgb(249,209,138)" stroke-width="1" opacity="0.996078431372549" d="M 36.5 54 L 37 58.5 L 36 58.5 L 36.5 54 Z " /><path fill="rgb(249,209,138)" stroke="rgb(249,209,138)" stroke-width="1" opacity="0.996078431372549" d="M 65.5 54 L 63.5 57 L 65.5 54 Z " /><path fill="rgb(249,209,138)" stroke="rgb(249,209,138)" stroke-width="1" opacity="0.996078431372549" d="M 72.5 54 L 73 58.5 L 72 58.5 L 72.5 54 Z " /><path fill="rgb(249,209,138)" stroke="rgb(249,209,138)" stroke-width="1" opacity="0.996078431372549" d="M 8.5 55 L 9 57.5 L 8 57.5 L 8.5 55 Z " /><path fill="rgb(249,209,138)" stroke="rgb(249,209,138)" stroke-width="1" opacity="0.996078431372549" d="M 87.5 55 L 85.5 58 L 87.5 55 Z " /><path fill="rgb(249,209,138)" stroke="rgb(249,209,138)" stroke-width="1" opacity="0.996078431372549" d="M 21.5 56 L 19.5 59 L 21.5 56 Z " /><path fill="rgb(249,209,138)" stroke="rgb(249,209,138)" stroke-width="1" opacity="0.996078431372549" d="M 23.5 61 L 20.5 65 L 23.5 61 Z " /><path fill="rgb(249,209,138)" stroke="rgb(249,209,138)" stroke-width="1" opacity="0.996078431372549" d="M 10.5 63 L 11.5 65 L 10.5 63 Z " /><path fill="rgb(249,209,138)" stroke="rgb(249,209,138)" stroke-width="1" opacity="0.996078431372549" d="M 38.5 63 L 39.5 65 L 38.5 63 Z " /><path fill="rgb(249,209,138)" stroke="rgb(249,209,138)" stroke-width="1" opacity="0.996078431372549" d="M 75.5 66 L 78.5 68 L 80 67.5 L 80.5 69 L 82 68.5 L 83.5 71 L 85 70.5 L 90.5 77 Q 93.1 76.2 92 79.5 L 95 84 Q 91.3 82.5 92 85.5 L 90 85.5 L 89.5 87 L 88.5 86 L 84.5 90 L 81.5 87 L 80 86.5 Q 82.5 85 79 83.5 L 76.5 77 L 75 82.5 L 78 88.5 Q 74.3 94.3 76 105.5 L 77 109 Q 72.5 108.2 70.5 111 L 66.5 111 L 63.5 112 L 59.5 111 L 57.5 111 L 52.5 112 L 48.5 110 L 46.5 110 L 44.5 109 L 43.5 110 Q 41.8 106.9 40 108.5 Q 40.8 105.9 37.5 107 L 35 106.5 L 36 99.5 L 35 97.5 Q 37.6 96.1 37 91.5 L 37 89.5 L 38 85.5 L 38 83.5 L 39 79.5 Q 36.5 78 40 76.5 Q 41.1 73.2 38.5 74 L 36 78.5 L 37 80.5 L 34.5 87 L 32 86.5 Q 33 81.5 30 80.5 L 30.5 79 L 29 78.5 Q 31.5 77 28 75.5 L 28.5 74 Q 30 76.5 31.5 73 L 36.5 70 L 38.5 70 L 41.5 69 L 43.5 72 Q 45.8 71.3 45 73.5 L 46.5 77 L 49 78.5 Q 48.3 80.8 50.5 80 L 50 78.5 L 48 73.5 L 49 73.5 Q 48.5 77.5 51.5 78 L 54.5 79 L 57.5 78 L 61 79 L 61.5 77 L 63.5 77 Q 65.8 77.8 65 75.5 Q 67 77.2 69 73.5 L 70.5 71 L 74 68.5 L 73.5 67 L 75.5 66 Z " /><path fill="rgb(249,209,138)" stroke="rgb(249,209,138)" stroke-width="1" opacity="0.996078431372549" d="M 48.5 68 L 49.5 70 L 48.5 68 Z " /><path fill="rgb(121,66,27)" stroke="rgb(121,66,27)" stroke-width="1" opacity="0.9921568627450981" d="M 44.5 29 L 49.5 30 L 54.5 33 Q 58.5 27 70.5 29 Q 77 30.5 80 35.5 L 80 40.5 L 76 45.5 L 76 48.5 L 77 52.5 Q 74.3 54.3 76 60.5 L 68.5 72 Q 64.2 77.2 54.5 77 L 51 74.5 L 53.5 74 L 55.5 75 L 66 70.5 L 65.5 69 L 66.5 70 L 72 64.5 L 75 56.5 L 71 48.5 L 72 46.5 L 71.5 45 L 73 45.5 Q 74.6 34.4 67.5 32 L 61.5 32 L 54 37.5 L 53.5 39 L 52.5 37 L 51 37.5 L 52 36.5 L 48.5 33 L 43.5 32 L 40 34.5 Q 36.8 37.3 37.5 44 L 37 37.5 L 41.5 30 L 44.5 29 Z " /><path fill="rgb(121,66,27)" stroke="rgb(121,66,27)" stroke-width="1" opacity="0.9921568627450981" d="M 16.5 66 L 18.5 67 L 21 66 L 24.5 82 L 25.5 76 Q 30 79 30 86.5 Q 26.5 90.5 18.5 90 L 14 87.5 L 12 82.5 L 12 67 L 16.5 66 Z " /><path fill="rgb(121,66,27)" stroke="rgb(121,66,27)" stroke-width="1" opacity="0.9921568627450981" d="M 96.5 85 L 101 91.5 L 95.5 98 L 79.5 108 L 80 106.5 L 81 102.5 L 87 93.5 L 85 92.5 Q 88.8 86.8 96.5 85 Z " /></svg>